/* XPM */
static char * C:\Users\c1\Documents\GitHub\arglogos\Arg wine logos\bitcoin128_xpm[] = {
"128 128 3 1",
" 	c None",
".	c #A71435",
"+	c #000000",
"                                                                                                                                ",
"                                                                                                                                ",
"                                                                                                                                ",
"                                                                                                                                ",
"                                                                                                                                ",
"                                                                                                                                ",
"                                                                                                                                ",
"                                                         ..............                                                         ",
"                                                   ..........................                                                   ",
"                                                ................................                                                ",
"                                            ........................................                                            ",
"                                          ............................................                                          ",
"                                       ..................................................                                       ",
"                                     ......................................................                                     ",
"                                    ........................................................                                    ",
"                                  ............................................................                                  ",
"                                 ..............................................................                                 ",
"                               ..................................................................                               ",
"                              ....................................................................                              ",
"                            ........................................................................                            ",
"                           ..........................................................................                           ",
"                          ............................................................................                          ",
"                         ..............................................................................                         ",
"                        ................................................................................                        ",
"                       ..................................................................................                       ",
"                      ....................................................................................                      ",
"                     ......................................................................................                     ",
"                    ........................................................................................                    ",
"                   ..........................................................................................                   ",
"                   ..........................................................................................                   ",
"                  ............................................................................................                  ",
"                 ...........................................         ..........................................                 ",
"                 ......................................                   .....................................                 ",
"                .....................................                       ....................................                ",
"               ....................................                           ...................................               ",
"               ...................................                             ..................................               ",
"              ...................................                                .................................              ",
"             ...................................                                 ..................................             ",
"             ..................................                                   .................................             ",
"            ..................................                                     .................................            ",
"            ..................................                                     .................................            ",
"            .................................                                       ................................            ",
"           ..................................                                       .................................           ",
"           .................................                                         ................................           ",
"          ..................................                                         .................................          ",
"          ..................................                                         .................................          ",
"          .................................                                           ................................          ",
"         ..................................                                           ................................          ",
"         ..................................                                            ................................         ",
"         .................................                    ++++++                   ................................         ",
"         .................................                   ++++++++                  ................................         ",
"        .................................                   +++++++++                   ................................        ",
"        .................................                   ++++++++++                  ................................        ",
"        .................................                  +++++++++++                   ...............................        ",
"        ................................                   +++++++++++                   ...............................        ",
"        ................................                  +++++++++++++                  ...............................        ",
"        ...............................                   +++++++++++++                   ..............................        ",
"       ................................                   ++++++++++++++                  ...............................       ",
"       ................................                  +++++++++++++++                   ..............................       ",
"       ...............................                   +++++++++++++++                   ..............................       ",
"       ...............................                  +++++++++++++++++                  ..............................       ",
"       ..............................                   +++++++++++++++++                   .............................       ",
"       ..............................                  +++++++++++++++++++                  .............................       ",
"       ..............................                  +++++++++++++++++++                  .............................       ",
"       .............................                   +++++++++++++++++++                   ............................       ",
"       .............................                  +++++++++++++++++++++                  ............................       ",
"       ............................                   +++++++++++++++++++++                   ...........................       ",
"       ............................                   +++++++++++++++++++++                   ...........................       ",
"       ............................                  +++++++++++++++++++++++                  ...........................       ",
"       ...........................                   +++++++++++++++++++++++                   ..........................       ",
"       ...........................                  ++++++++++++++++++++++++                   ..........................       ",
"        .........................                   +++++++++++++++++++++++++                  .........................        ",
"        .........................                   +++++++++++++++++++++++++                   ........................        ",
"        .........................                  ++++++++++++++++++++++++++                   ........................        ",
"        ........................                   +++++++++++++++++++++++++++                   .......................        ",
"        ........................                   +++++++++++++++++++++++++++                   .......................        ",
"        .......................                   +++++++++++++++++++++++++++++                  .......................        ",
"         ......................                   +++++++++++++++++++++++++++++                   .....................         ",
"         ......................                  ++++++++++++++++++++++++++++++                   .....................         ",
"         .....................                   +++++++++++++++++++++++++++++++                  .....................         ",
"         .....................                  ++++++++++++++++++++++++++++++++                   ...................          ",
"          ...................                   +++++++++++++++++++++++++++++++++                  ...................          ",
"          ...................                   +++++++++++++++++++++++++++++++++                   ..................          ",
"          ...................                  ++++++++++++++++++++++++++++++++++                   ..................          ",
"           .................                   +++++++++++++++++++++++++++++++++++                  .................           ",
"           .................                  ++++++++++++++++++++++++++++++++++++                   ................           ",
"            ...............                   ++++++++++++++++++++++++++++++++++++                   ...............            ",
"            ...............                   +++++++++++++++++++++++++++++++++++++                   ..............            ",
"            ...............                  ++++++++++++++++++++++++++++++++++++++                   ..............            ",
"             .............                   +++++++++++++++++++++++++++++++++++++++                  .............             ",
"             .............                  ++++++++++++++++++++++++++++++++++++++++                   ............             ",
"              ............                  ++++++++++++++++++++++++++++++++++++++++                   ...........              ",
"               ..........                   +++++++++++++++++++++++++++++++++++++++++                  ..........               ",
"               ..........                  ++++++++++++++++++++++++++++++++++++++++++                   .........               ",
"                ........                   ++++++++++++++++++++++++++++++++++++++++++                   ........                ",
"                 .......                   +++++++++++++++++++++++++++++++++++++++++++                  .......                 ",
"                 .......                  ++++++++++++++++++++++++++++++++++++++++++++                   ......                 ",
"                  .....                   +++++++++++++++++++++++++++++++++++++++++++++                  .....                  ",
"                   ....                  ++++++++++++++++++++++++++++++++++++++++++++++                   ...                   ",
"                   ...                   ++++++++++++++++++++++++++++++++++++++++++++++                   ...                   ",
"                    ..                   +++++++++++++++++++++++++++++++++++++++++++++++                   .                    ",
"                                        ++++++++++++++++++++++++++++++++++++++++++++++++                                        ",
"                                        +++++++++++++++++++++++++++++++++++++++++++++++++                                       ",
"                                       ++++++++++++++++++++++++++++++++++++++++++++++++++                                       ",
"                                       ++++++++++++++++++++++++++++++++++++++++++++++++++                                       ",
"                                       +++++++++++++++++++++++++++++++++++++++++++++++++++                                      ",
"                                      ++++++++++++++++++++++++++++++++++++++++++++++++++++                                      ",
"                                      ++++++++++++++++++++++++++++++++++++++++++++++++++++                                      ",
"                                     ++++++++++++++++++++++++++++++++++++++++++++++++++++++                                     ",
"                                     ++++++++++++++++++++++++++++++++++++++++++++++++++++++                                     ",
"                                     +++++++++++++++++++++++++++++++++++++++++++++++++++++++                                    ",
"                                    ++++++++++++++++++++++++++++++++++++++++++++++++++++++++                                    ",
"                                    ++++++++++++++++++++++++++++++++++++++++++++++++++++++++                                    ",
"                                    ++++++++++++++++++++++++++++++++++++++++++++++++++++++++                                    ",
"                                     ++++++++++++++++++++++++++++++++++++++++++++++++++++++                                     ",
"                                       ++++++++++++++++++++++++++++++++++++++++++++++++++                                       ",
"                                          ++++++++++++++++++++++++++++++++++++++++++++                                          ",
"                                            ++++++++++++++++++++++++++++++++++++++++                                            ",
"                                                ++++++++++++++++++++++++++++++++                                                ",
"                                                   ++++++++++++++++++++++++++                                                   ",
"                                                         ++++++++++++++                                                         ",
"                                                                                                                                ",
"                                                                                                                                ",
"                                                                                                                                ",
"                                                                                                                                ",
"                                                                                                                                ",
"                                                                                                                                ",
"                                                                                                                                "};
