/* XPM */
static char * C:\Users\c1\Documents\GitHub\argentum\share\pixmaps\bitcoin32_xpm[] = {
"32 32 3 1",
" 	c None",
".	c #A71435",
"+	c #000000",
"                                ",
"            .......             ",
"         .............          ",
"       .................        ",
"      ...................       ",
"     .....................      ",
"    .......................     ",
"   ..........     ..........    ",
"   .........        ........    ",
"  .........         .........   ",
"  .........          ........   ",
"  ........           ........   ",
" .........    +++     ........  ",
" ........     +++     ........  ",
" ........     ++++    ........  ",
" .......     +++++     .......  ",
" .......     +++++     .......  ",
" .......    +++++++     ......  ",
" ......     +++++++     ......  ",
"  .....     ++++++++    .....   ",
"  ....     +++++++++     ....   ",
"  ....     +++++++++     ....   ",
"   ...    +++++++++++    ...    ",
"   ..     +++++++++++     ..    ",
"          +++++++++++           ",
"         +++++++++++++          ",
"         +++++++++++++          ",
"        +++++++++++++++         ",
"         +++++++++++++          ",
"            +++++++             ",
"                                ",
"                                "};
