/* XPM */
static char * C:\Users\c1\Documents\GitHub\arglogos\Arg wine logos\bitcoin16_xpm[] = {
"16 16 3 1",
" 	c None",
".	c #A71435",
"+	c #000000",
"                ",
"      ....      ",
"    ........    ",
"   ..........   ",
"  ....    ....  ",
"  ....     ...  ",
" ....  ++  .... ",
" ....  ++  .... ",
" ...   +++  ... ",
" ...  ++++  ... ",
"  ..  ++++  ..  ",
"  .  ++++++  .  ",
"     ++++++     ",
"     ++++++     ",
"      ++++      ",
"                "};
